<svg width="38" height="38" viewBox="0 0 38 38" fill="none" xmlns="http://www.w3.org/2000/svg">
    <g clip-path="url(#clip0_8_46)">
        <path fill-rule="evenodd" clip-rule="evenodd"
            d="M19.0004 0.791672C14.4899 0.794012 10.1272 2.39156 6.69253 5.29867C3.25787 8.20577 0.97517 12.2329 0.252602 16.6598C-0.469966 21.0868 0.414707 25.625 2.74845 29.463C5.0822 33.3009 8.71282 36.1883 12.9911 37.6089C13.935 37.7841 14.2905 37.1991 14.2905 36.7017C14.2905 36.2043 14.2716 34.7621 14.2653 33.1854C8.9797 34.3273 7.8628 30.9549 7.8628 30.9549C7.00074 28.7651 5.75483 28.1895 5.75483 28.1895C4.0307 27.0195 5.88384 27.0414 5.88384 27.0414C7.79359 27.1759 8.79724 28.9904 8.79724 28.9904C10.4899 31.8778 13.2428 31.0425 14.3251 30.5545C14.495 29.3313 14.989 28.4992 15.5333 28.0268C11.3111 27.5513 6.87488 25.9309 6.87488 18.6919C6.84871 16.8145 7.54936 14.999 8.83184 13.6209C8.63677 13.1454 7.9855 11.2246 9.01745 8.6156C9.01745 8.6156 10.6126 8.10882 14.2433 10.552C17.3575 9.70524 20.6433 9.70524 23.7575 10.552C27.3851 8.10882 28.977 8.6156 28.977 8.6156C30.0122 11.2184 29.3609 13.1392 29.1658 13.6209C30.4524 14.9992 31.1545 16.8179 31.1259 18.6982C31.1259 25.9528 26.6803 27.5513 22.4518 28.0175C23.1314 28.6056 23.7386 29.7537 23.7386 31.518C23.7386 34.0457 23.7166 36.0791 23.7166 36.7017C23.7166 37.2053 24.0595 37.7934 25.0223 37.6089C29.3011 36.1881 32.932 33.3002 35.2658 29.4616C37.5995 25.623 38.4837 21.0841 37.7603 16.6568C37.0369 12.2294 34.7531 8.20223 31.3173 5.29563C27.8815 2.38903 23.5178 0.792529 19.0067 0.791672H19.0004Z"
            fill="#d8d2cc" />
        <path
            d="M7.19535 27.9173C7.15445 28.0112 7.00343 28.0393 6.88073 27.9737C6.75802 27.908 6.66679 27.786 6.71084 27.689C6.75488 27.592 6.90276 27.567 7.02546 27.6327C7.14816 27.6984 7.24254 27.8235 7.19535 27.9173Z"
            fill="#d8d2cc" />
        <path
            d="M7.96621 28.7714C7.90106 28.804 7.82651 28.8131 7.75535 28.7971C7.68418 28.7812 7.62081 28.7411 7.57609 28.6838C7.45338 28.5524 7.4282 28.3709 7.52259 28.2896C7.61697 28.2083 7.78688 28.2458 7.90958 28.3772C8.03229 28.5086 8.0606 28.69 7.96621 28.7714Z"
            fill="#d8d2cc" />
        <path
            d="M8.71506 29.8569C8.59865 29.9382 8.40043 29.8569 8.29031 29.6942C8.25986 29.6651 8.23565 29.6301 8.21911 29.5914C8.20257 29.5527 8.19403 29.511 8.19403 29.469C8.19403 29.4269 8.20257 29.3853 8.21911 29.3466C8.23565 29.3079 8.25986 29.2729 8.29031 29.2438C8.40672 29.1655 8.60495 29.2438 8.71506 29.4033C8.82518 29.5628 8.82833 29.7756 8.71506 29.8569V29.8569Z"
            fill="#d8d2cc" />
        <path
            d="M9.73127 30.908C9.62744 31.0237 9.41665 30.9925 9.24361 30.836C9.07057 30.6796 9.02966 30.4669 9.13348 30.3543C9.2373 30.2417 9.4481 30.2729 9.62744 30.4262C9.80677 30.5795 9.84138 30.7954 9.73127 30.908V30.908Z"
            fill="#d8d2cc" />
        <path
            d="M11.1565 31.5212C11.1093 31.6682 10.8953 31.7339 10.6814 31.6713C10.4674 31.6087 10.3258 31.4336 10.3667 31.2834C10.4077 31.1332 10.6247 31.0644 10.8418 31.1332C11.0589 31.2021 11.1974 31.3679 11.1565 31.5212Z"
            fill="#d8d2cc" />
        <path
            d="M12.7107 31.6275C12.7107 31.7808 12.5346 31.9122 12.308 31.9153C12.0815 31.9184 11.8959 31.7933 11.8959 31.64C11.8959 31.4867 12.0721 31.3553 12.2986 31.3522C12.5251 31.3491 12.7107 31.4711 12.7107 31.6275Z"
            fill="#d8d2cc" />
        <path
            d="M14.158 31.3866C14.1863 31.5399 14.029 31.6995 13.8025 31.737C13.5759 31.7745 13.3777 31.6838 13.3494 31.5336C13.3211 31.3835 13.4847 31.2208 13.7049 31.1802C13.9252 31.1395 14.1297 31.2333 14.158 31.3866Z"
            fill="#d8d2cc" />
    </g>
    <defs>
        <clipPath id="clip0_8_46">
            <rect width="38" height="38" fill="white" />
        </clipPath>
    </defs>
</svg>